<svg id="Layer_1" data-name="Layer 1" xmlns="http://www.w3.org/2000/svg" viewBox="0 0 512 512"><defs><style>.cls-1{fill:#79d3d3;}.cls-2{opacity:0.14;}.cls-3{fill:#17292d;}.cls-4{fill:#d9e4e8;}.cls-5{fill:#141f38;}.cls-6{fill:#f4607f;}</style></defs><title>drink-with-cherry-filled</title><polygon class="cls-1" points="123.24 179.19 388.76 179.19 256 326.48 123.24 179.19"/><g class="cls-2"><path class="cls-3" d="M432.15,65.66a61,61,0,0,1-8,10.43l-205.52,228,13.64,15.13a32,32,0,0,0,47.54,0l170-188.61C471.11,108.36,459.42,73.56,432.15,65.66Z"/></g><path class="cls-4" d="M123.24,179.2,71.72,122.05c-7.82-8.18-9.79-18.82-5.55-28.77A27.09,27.09,0,0,1,91.53,76.79H420.47a27.09,27.09,0,0,1,25.36,16.49,25.6,25.6,0,0,1-5.29,28.48L388.76,179.2Z"/><path class="cls-5" d="M420.47,64H405.36l39.25-42.52A12.8,12.8,0,0,0,425.8,4.11L370.52,64h-279C56.25,64,38,105.39,62.22,130.62l32.25,35.78h0l148.73,165v155h-64a12.8,12.8,0,1,0,0,25.6H332.8a12.8,12.8,0,0,0,0-25.6h-64v-155l148.73-165h0l32.25-35.78C474,105.39,455.75,64,420.47,64ZM256,307.36,152,192h93.38a38.4,38.4,0,0,0,72.41,0H360ZM431.3,112.9l-.27.28-.26.29-47.7,52.92H317.81a38.4,38.4,0,0,0-72.41,0H128.94l-47.7-52.92-.26-.29-.27-.28a12.83,12.83,0,0,1-2.76-14.6,14.11,14.11,0,0,1,13.59-8.71H420.47a14.11,14.11,0,0,1,13.59,8.71A12.83,12.83,0,0,1,431.3,112.9Z"/><path class="cls-6" d="M281.6,192a12.8,12.8,0,1,0-12.8-12.8A12.81,12.81,0,0,0,281.6,192Z"/></svg>